# xmcd
# 
# Track frame offsets:
#     150
#     16508
#     32279
#     47191
#     63659
#     79600
#     96024
#     112154
#     130319
#     145674
# 
# Disc length: 2151
# 
# Revision: 0
# Processed by: cddbd v1.5.2PL0 Copyright (c) Steve Scherf et al.
# Submitted via: fre:ac v1.0.31
# 
DISCID=7a08650a
DTITLE=Good Weather Forecast - We Glow
DYEAR=2015
DGENRE=Christian
TTITLE0=Citylights
TTITLE1=We bring the fire
TTITLE2=Laser
TTITLE3=Every second matters
TTITLE4=Light it up
TTITLE5=Waking up
TTITLE6=You are
TTITLE7=Dance all night
TTITLE8=On the top of the world
TTITLE9=This time forever
EXTD=
EXTT0=
EXTT1=
EXTT2=
EXTT3=
EXTT4=
EXTT5=
EXTT6=
EXTT7=
EXTT8=
EXTT9=
PLAYORDER=
